<?xml version="1.0" encoding="utf-8"?>
<!-- Generator: Adobe Illustrator 22.0.1, SVG Export Plug-In . SVG Version: 6.00 Build 0)  -->
<svg version="1.1" id="图层_1" xmlns="http://www.w3.org/2000/svg" xmlns:xlink="http://www.w3.org/1999/xlink" x="0px" y="0px"
	 viewBox="0 0 1024 1024" enable-background="new 0 0 1024 1024" xml:space="preserve">
<path fill="#FFFFFF" stroke="#000000" stroke-miterlimit="10" d="M704,341.3h64c35.3,0,64,28.7,64,64V768c0,35.3-28.7,64-64,64H256
	c-35.3,0-64-28.7-64-64V405.3c0-35.3,28.7-64,64-64h64v64h-64V768h512V405.3h-64V341.3z"/>
<g id="图层_2_1_">
	<polygon fill="#007ACC" stroke="#FFFFFF" stroke-miterlimit="10" points="517.7,124.6 668.5,275.5 623.3,320.7 549.2,246.7 
		549.2,551.5 485.2,551.5 485.2,247.6 412.1,320.7 366.8,275.5 517.6,124.7 	"/>
</g>
</svg>
